<?xml version="1.0" encoding="utf-8"?>
<!-- Generator: Adobe Illustrator 26.0.1, SVG Export Plug-In . SVG Version: 6.00 Build 0)  -->
<svg version="1.1" id="Layer_1" xmlns="http://www.w3.org/2000/svg" xmlns:xlink="http://www.w3.org/1999/xlink" x="0px" y="0px"
	 viewBox="0 0 23.86 30" style="enable-background:new 0 0 23.86 30;" xml:space="preserve">
<style type="text/css">
	.st0{fill:#419CCE;}
</style>
<path class="st0" d="M23.44,26.14l-6.81-10.29c1.5-1.68,2.42-3.9,2.42-6.32C19.05,4.27,14.78,0,9.53,0S0,4.27,0,9.53
	s4.27,9.53,9.53,9.53c1.03,0,2.02-0.17,2.94-0.47l6.82,10.3c0.76,1.14,2.31,1.46,3.45,0.7C23.88,28.83,24.2,27.28,23.44,26.14z
	 M3.5,9.53C3.5,6.2,6.2,3.5,9.53,3.5s6.03,2.71,6.03,6.03s-2.71,6.03-6.03,6.03S3.5,12.85,3.5,9.53z"/>
</svg>
