<?xml version="1.0" encoding="utf-8"?>
<!-- Generator: Adobe Illustrator 26.0.1, SVG Export Plug-In . SVG Version: 6.00 Build 0)  -->
<svg version="1.1" id="Layer_1" xmlns="http://www.w3.org/2000/svg" xmlns:xlink="http://www.w3.org/1999/xlink" x="0px" y="0px"
	 viewBox="0 0 161.99 55.26" style="enable-background:new 0 0 161.99 55.26;" xml:space="preserve">
<style type="text/css">
	.st0{fill:#010101;}
	.st1{fill:#429CCE;}
	.st2{fill:#306E8A;}
	.st3{fill:none;}
</style>
<g>
	<g>
		<path class="st0" d="M6.65,29.99L0,4.93h3.4l3.81,16.42c0.41,1.72,0.76,3.43,1.06,5.13c0.64-2.68,1.01-4.22,1.13-4.63l4.77-16.92
			h4l3.59,12.68c0.9,3.14,1.55,6.1,1.95,8.87c0.32-1.58,0.73-3.4,1.25-5.45l3.93-16.1h3.33l-6.87,25.05h-3.2L16.87,10.9
			c-0.44-1.59-0.71-2.57-0.79-2.94c-0.26,1.15-0.51,2.13-0.73,2.94l-5.31,19.09H6.65z"/>
	</g>
	<g>
		<g>
			<path class="st0" d="M65.64,29.99V4.93h8.63c1.95,0,3.44,0.12,4.46,0.36c1.44,0.33,2.66,0.93,3.67,1.79
				c1.32,1.12,2.31,2.54,2.97,4.28c0.65,1.74,0.98,3.72,0.98,5.96c0,1.9-0.22,3.59-0.67,5.06s-1.01,2.69-1.71,3.65
				c-0.7,0.96-1.46,1.72-2.28,2.27c-0.83,0.55-1.82,0.97-2.99,1.26c-1.17,0.29-2.51,0.43-4.02,0.43H65.64z M68.96,27.03h5.35
				c1.65,0,2.95-0.15,3.89-0.46c0.94-0.31,1.69-0.74,2.25-1.3c0.79-0.79,1.4-1.84,1.84-3.17s0.66-2.94,0.66-4.83
				c0-2.62-0.43-4.63-1.29-6.04c-0.86-1.41-1.91-2.35-3.14-2.83c-0.89-0.34-2.32-0.51-4.29-0.51h-5.26V27.03z"/>
		</g>
		<g>
			<path class="st0" d="M89.34,21.94l3.13-0.27c0.15,1.25,0.49,2.28,1.03,3.08c0.54,0.8,1.38,1.45,2.52,1.95
				c1.14,0.5,2.42,0.74,3.85,0.74c1.26,0,2.38-0.19,3.35-0.56c0.97-0.38,1.69-0.89,2.16-1.55c0.47-0.65,0.71-1.37,0.71-2.14
				c0-0.79-0.23-1.47-0.68-2.06c-0.46-0.59-1.21-1.08-2.26-1.48c-0.67-0.26-2.16-0.67-4.46-1.22c-2.3-0.55-3.91-1.07-4.84-1.56
				c-1.2-0.63-2.09-1.4-2.67-2.33c-0.59-0.93-0.88-1.97-0.88-3.12c0-1.26,0.36-2.45,1.08-3.55c0.72-1.1,1.77-1.93,3.14-2.5
				c1.38-0.57,2.91-0.85,4.6-0.85c1.86,0,3.5,0.3,4.91,0.9c1.42,0.6,2.51,1.48,3.27,2.64c0.76,1.16,1.17,2.48,1.23,3.95l-3.18,0.24
				c-0.17-1.58-0.75-2.78-1.73-3.59c-0.99-0.81-2.44-1.21-4.37-1.21c-2.01,0-3.47,0.37-4.38,1.1c-0.92,0.73-1.38,1.62-1.38,2.66
				c0,0.9,0.32,1.64,0.97,2.22c0.64,0.58,2.3,1.18,5,1.79c2.69,0.61,4.54,1.14,5.55,1.6c1.46,0.67,2.53,1.52,3.23,2.55
				c0.69,1.03,1.04,2.22,1.04,3.56c0,1.33-0.38,2.59-1.15,3.77c-0.76,1.18-1.86,2.1-3.29,2.75c-1.43,0.66-3.04,0.98-4.83,0.98
				c-2.27,0-4.17-0.33-5.7-0.99s-2.73-1.65-3.61-2.98C89.85,25.12,89.39,23.61,89.34,21.94z"/>
		</g>
		<g>
			<path class="st0" d="M112.17,17.79c0-4.16,1.12-7.41,3.35-9.77c2.23-2.35,5.12-3.53,8.65-3.53c2.31,0,4.4,0.55,6.25,1.66
				c1.86,1.11,3.27,2.65,4.25,4.62c0.97,1.98,1.46,4.22,1.46,6.73c0,2.54-0.51,4.81-1.54,6.82c-1.03,2.01-2.48,3.52-4.36,4.55
				s-3.91,1.55-6.08,1.55c-2.36,0-4.47-0.57-6.32-1.71c-1.86-1.14-3.26-2.69-4.22-4.67C112.65,22.07,112.17,19.99,112.17,17.79z
				 M115.59,17.84c0,3.02,0.81,5.4,2.44,7.14c1.62,1.74,3.66,2.61,6.11,2.61c2.5,0,4.55-0.88,6.16-2.63
				c1.61-1.75,2.42-4.24,2.42-7.47c0-2.04-0.34-3.82-1.03-5.34c-0.69-1.52-1.7-2.7-3.03-3.54c-1.33-0.84-2.82-1.26-4.47-1.26
				c-2.35,0-4.37,0.81-6.06,2.42C116.43,11.38,115.59,14.07,115.59,17.84z"/>
		</g>
		<g>
			<path class="st0" d="M139.91,29.99V4.93h11.11c2.23,0,3.93,0.23,5.09,0.67c1.16,0.45,2.09,1.25,2.79,2.38
				c0.69,1.14,1.04,2.4,1.04,3.78c0,1.78-0.58,3.28-1.73,4.49c-1.15,1.22-2.93,1.99-5.33,2.32c0.88,0.42,1.54,0.84,2,1.25
				c0.97,0.89,1.89,2,2.75,3.33l4.36,6.82h-4.17l-3.32-5.21c-0.97-1.5-1.77-2.65-2.39-3.45c-0.63-0.8-1.19-1.36-1.68-1.67
				c-0.5-0.32-1-0.54-1.51-0.67c-0.38-0.08-0.99-0.12-1.85-0.12h-3.85v11.13H139.91z M143.22,15.99h7.13c1.52,0,2.7-0.16,3.55-0.47
				c0.85-0.31,1.5-0.81,1.95-1.5c0.44-0.69,0.67-1.44,0.67-2.25c0-1.18-0.43-2.16-1.29-2.92c-0.86-0.76-2.22-1.15-4.08-1.15h-7.93
				V15.99z"/>
		</g>
		<g>
			<path class="st0" d="M32.78,51.47V38.59h4.86c0.86,0,1.51,0.04,1.96,0.12c0.63,0.11,1.16,0.31,1.59,0.6s0.77,0.71,1.03,1.24
				s0.39,1.12,0.39,1.76c0,1.1-0.35,2.02-1.05,2.78s-1.96,1.14-3.78,1.14h-3.3v5.24H32.78z M34.48,44.71h3.33
				c1.1,0,1.88-0.21,2.35-0.62s0.69-0.99,0.69-1.73c0-0.54-0.14-1-0.41-1.38s-0.63-0.64-1.08-0.76c-0.29-0.08-0.82-0.11-1.59-0.11
				h-3.3V44.71z"/>
			<path class="st0" d="M50.44,51.47V50.1c-0.73,1.05-1.71,1.58-2.96,1.58c-0.55,0-1.06-0.11-1.54-0.32s-0.83-0.48-1.06-0.8
				s-0.39-0.71-0.49-1.17c-0.06-0.31-0.1-0.8-0.1-1.48v-5.78h1.58v5.18c0,0.83,0.03,1.38,0.1,1.67c0.1,0.42,0.31,0.74,0.63,0.98
				s0.72,0.36,1.2,0.36s0.92-0.12,1.34-0.36s0.71-0.57,0.88-0.99s0.26-1.03,0.26-1.82v-5h1.58v9.33H50.44z"/>
			<path class="st0" d="M55.59,51.47h-1.47V38.59h1.58v4.6c0.67-0.84,1.52-1.26,2.56-1.26c0.57,0,1.12,0.12,1.63,0.35
				s0.93,0.56,1.27,0.98s0.59,0.92,0.78,1.52s0.28,1.22,0.28,1.9c0,1.6-0.4,2.84-1.19,3.71s-1.74,1.31-2.85,1.31
				c-1.1,0-1.97-0.46-2.59-1.38V51.47z M55.57,46.73c0,1.12,0.15,1.93,0.46,2.43c0.5,0.81,1.17,1.22,2.02,1.22
				c0.69,0,1.29-0.3,1.79-0.9s0.76-1.5,0.76-2.69c0-1.22-0.24-2.12-0.73-2.7s-1.07-0.87-1.75-0.87c-0.69,0-1.29,0.3-1.79,0.9
				S55.57,45.6,55.57,46.73z"/>
			<path class="st0" d="M63.99,51.47V38.59h1.58v12.88H63.99z"/>
			<path class="st0" d="M67.83,40.41v-1.82h1.58v1.82H67.83z M67.83,51.47v-9.33h1.58v9.33H67.83z"/>
			<path class="st0" d="M77.79,48.05l1.56,0.2c-0.17,1.07-0.6,1.91-1.31,2.52s-1.56,0.91-2.58,0.91c-1.28,0-2.3-0.42-3.08-1.25
				s-1.16-2.03-1.16-3.59c0-1.01,0.17-1.89,0.5-2.65s0.84-1.32,1.52-1.7s1.43-0.57,2.23-0.57c1.01,0,1.84,0.26,2.49,0.77
				s1.06,1.24,1.24,2.18l-1.54,0.24c-0.15-0.63-0.41-1.1-0.78-1.42s-0.82-0.47-1.35-0.47c-0.8,0-1.44,0.29-1.94,0.86
				s-0.75,1.48-0.75,2.71c0,1.25,0.24,2.17,0.72,2.73s1.11,0.85,1.88,0.85c0.62,0,1.14-0.19,1.56-0.57S77.68,48.84,77.79,48.05z"/>
			<path class="st0" d="M85.83,51.47V38.59h1.71v11.36h6.35v1.52H85.83z"/>
			<path class="st0" d="M95.5,40.41v-1.82h1.58v1.82H95.5z M95.5,51.47v-9.33h1.58v9.33H95.5z"/>
			<path class="st0" d="M100.78,51.47h-1.47V38.59h1.58v4.6c0.67-0.84,1.52-1.26,2.56-1.26c0.57,0,1.12,0.12,1.63,0.35
				s0.93,0.56,1.27,0.98s0.59,0.92,0.78,1.52s0.28,1.22,0.28,1.9c0,1.6-0.4,2.84-1.19,3.71s-1.74,1.31-2.85,1.31
				c-1.1,0-1.97-0.46-2.59-1.38V51.47z M100.77,46.73c0,1.12,0.15,1.93,0.46,2.43c0.5,0.81,1.17,1.22,2.02,1.22
				c0.69,0,1.29-0.3,1.79-0.9s0.76-1.5,0.76-2.69c0-1.22-0.24-2.12-0.73-2.7s-1.07-0.87-1.75-0.87c-0.69,0-1.29,0.3-1.79,0.9
				S100.77,45.6,100.77,46.73z"/>
			<path class="st0" d="M109.2,51.47v-9.33h1.42v1.42c0.36-0.66,0.7-1.1,1.01-1.31s0.65-0.32,1.02-0.32c0.53,0,1.08,0.17,1.63,0.51
				l-0.54,1.47c-0.39-0.23-0.77-0.34-1.16-0.34c-0.35,0-0.66,0.1-0.93,0.31s-0.47,0.5-0.59,0.87c-0.18,0.56-0.26,1.18-0.26,1.85
				v4.89H109.2z"/>
			<path class="st0" d="M121.22,50.32c-0.59,0.5-1.15,0.85-1.69,1.05s-1.12,0.31-1.74,0.31c-1.03,0-1.81-0.25-2.36-0.75
				s-0.83-1.14-0.83-1.92c0-0.46,0.1-0.87,0.31-1.25s0.48-0.68,0.82-0.91s0.72-0.4,1.14-0.52c0.31-0.08,0.78-0.16,1.41-0.24
				c1.28-0.15,2.22-0.33,2.82-0.54c0.01-0.22,0.01-0.35,0.01-0.41c0-0.64-0.15-1.1-0.45-1.36c-0.4-0.36-1-0.54-1.8-0.54
				c-0.74,0-1.29,0.13-1.65,0.39s-0.62,0.72-0.79,1.38l-1.55-0.21c0.14-0.66,0.37-1.2,0.69-1.6s0.79-0.72,1.4-0.94
				s1.32-0.33,2.12-0.33c0.8,0,1.44,0.09,1.94,0.28s0.86,0.42,1.1,0.71s0.4,0.64,0.49,1.08c0.05,0.27,0.08,0.76,0.08,1.46v2.11
				c0,1.47,0.03,2.4,0.1,2.79s0.2,0.76,0.4,1.12h-1.65C121.37,51.14,121.26,50.76,121.22,50.32z M121.09,46.79
				c-0.57,0.23-1.44,0.43-2.58,0.6c-0.65,0.09-1.11,0.2-1.38,0.32s-0.48,0.29-0.62,0.51s-0.22,0.48-0.22,0.75
				c0,0.42,0.16,0.77,0.48,1.05s0.79,0.42,1.4,0.42c0.61,0,1.15-0.13,1.63-0.4s0.82-0.63,1.05-1.09c0.17-0.36,0.25-0.88,0.25-1.58
				V46.79z"/>
			<path class="st0" d="M124.96,51.47v-9.33h1.42v1.42c0.36-0.66,0.7-1.1,1.01-1.31s0.65-0.32,1.02-0.32c0.53,0,1.08,0.17,1.63,0.51
				l-0.54,1.47c-0.39-0.23-0.77-0.34-1.16-0.34c-0.35,0-0.66,0.1-0.93,0.31s-0.47,0.5-0.59,0.87c-0.18,0.56-0.26,1.18-0.26,1.85
				v4.89H124.96z"/>
			<path class="st0" d="M131.45,55.07l-0.18-1.49c0.35,0.09,0.65,0.14,0.91,0.14c0.35,0,0.63-0.06,0.84-0.18s0.38-0.28,0.52-0.49
				c0.1-0.16,0.26-0.55,0.48-1.18c0.03-0.09,0.08-0.22,0.14-0.39l-3.54-9.35h1.71l1.94,5.41c0.25,0.69,0.48,1.41,0.68,2.16
				c0.18-0.73,0.4-1.44,0.65-2.13l2-5.44h1.58l-3.55,9.49c-0.38,1.03-0.68,1.73-0.89,2.12c-0.28,0.52-0.6,0.9-0.97,1.15
				s-0.8,0.36-1.3,0.36C132.17,55.26,131.83,55.2,131.45,55.07z"/>
		</g>
		<g>
			<g>
				<path class="st1" d="M26.49,28.72l4.06,1.53c0.44,0.17,0.93-0.06,1.09-0.49L41.87,2.68c0.17-0.44-0.06-0.93-0.49-1.09
					l-4.06-1.53c-0.44-0.17-0.93,0.06-1.09,0.49L26,27.62C25.83,28.06,26.05,28.55,26.49,28.72z"/>
			</g>
			<g>
				<path class="st0" d="M41.02,29.99V4.93h3.4l13.16,19.67V4.93h3.18v25.05h-3.4L44.2,10.3v19.69H41.02z"/>
			</g>
			<g>
				
					<rect x="37.86" y="0.41" transform="matrix(0.3532 -0.9355 0.9355 0.3532 21.594 38.1062)" class="st2" width="1" height="6.04"/>
			</g>
			<g>
				<path class="st2" d="M27.02,27.23c-0.01,0-0.03,0-0.04-0.01c-0.06-0.02-0.1-0.1-0.07-0.16l8.74-23.15
					c0.02-0.06,0.1-0.1,0.16-0.07c0.06,0.02,0.1,0.1,0.07,0.16l-8.74,23.15C27.12,27.2,27.07,27.23,27.02,27.23z"/>
			</g>
			<g>
				<path class="st2" d="M31.18,28.92c-0.01,0-0.03,0-0.04-0.01c-0.06-0.02-0.1-0.1-0.07-0.16L39.81,5.6
					c0.02-0.06,0.1-0.1,0.16-0.07c0.06,0.02,0.1,0.1,0.07,0.16L31.3,28.84C31.28,28.89,31.23,28.92,31.18,28.92z"/>
			</g>
		</g>
	</g>
</g>
<rect class="st3" width="161.99" height="55.26"/>
</svg>
